<svg xmlns="http://www.w3.org/2000/svg" width="80" height="80" viewBox="0 0 80 80">
    <g fill="none" fill-rule="evenodd" stroke-linecap="round" stroke-linejoin="round" stroke-width="1.5">
        <path stroke="#434A54" d="M60.636 18.72l-.037.01c-.004 0-.007.004-.01.004l-38.42 11.915a1.19 1.19 0 0 0-.842 1.14c0 .522.34.986.838 1.14L36.98 37.58l-2.797 7.498a1.194 1.194 0 1 0 1.537 1.54l7.507-2.798 4.653 14.804a1.198 1.198 0 0 0 2.284-.003l11.925-38.392c0-.003.004-.007.004-.01l.01-.03a1.198 1.198 0 0 0-1.466-1.469z"/>
        <path fill="#1DBDC0" stroke="#434A54" d="M43.227 43.821l18.567-24.777-24.815 18.534-2.743 7.755c-.144.408-.041.862.264 1.167.304.304.759.4 1.16.245l7.567-2.924z"/>
        <g stroke="#1DBDC0">
            <path d="M29.369 44.235l-7.288 7.288M36.544 51.41l-7.481 7.481M30.307 50.16l-7.481 7.481"/>
        </g>
    </g>
</svg>
