<svg xmlns="http://www.w3.org/2000/svg" width="26" height="26" viewBox="0 0 26 26">
    <g fill="none" fill-rule="evenodd">
        <path stroke="#313131" stroke-linecap="round" stroke-linejoin="round" stroke-width="1.043" d="M17.767 14.692c-.591 1.602-1.486 2.996-2.658 4.141-1.335 1.304-3.083 2.34-5.196 3.078-.07.025-.142.044-.214.059-.096.019-.194.03-.29.03h-.02c-.103 0-.207-.01-.31-.03-.072-.015-.144-.034-.213-.058-2.115-.738-3.865-1.773-5.201-3.077-1.173-1.145-2.068-2.538-2.658-4.14C-.067 11.78-.006 8.57.043 5.99l.001-.04c.01-.212.017-.436.02-.683.018-1.213.983-2.217 2.196-2.284 2.53-.141 4.486-.966 6.158-2.596l.015-.014C8.71.12 9.06-.005 9.408 0c.336.005.67.13.938.374l.014.014c1.673 1.63 3.63 2.455 6.159 2.596 1.213.067 2.178 1.07 2.195 2.284.004.249.01.472.02.684v.017c.05 2.584.11 5.8-.967 8.723z" transform="translate(4.333 1.444)"/>
        <path fill="#1DBDC0" stroke="#313131" stroke-linecap="round" stroke-linejoin="round" stroke-width="1.043" d="M14.872 11c0 3.017-2.45 5.473-5.464 5.483h-.02c-3.022 0-5.482-2.46-5.482-5.483 0-3.023 2.46-5.483 5.483-5.483h.02c3.013.011 5.463 2.467 5.463 5.483z" transform="translate(4.333 1.444)"/>
        <path fill="#FFF" fill-rule="nonzero" d="M11.878 10.21l-2.47 2.47-.533.534c-.126.126-.292.189-.457.189-.165 0-.33-.063-.457-.189l-1.147-1.148c-.252-.252-.252-.66 0-.912.252-.253.66-.253.913 0l.691.69 2.547-2.546c.252-.252.66-.252.913 0 .252.252.252.66 0 .913z" transform="translate(4.333 1.444)"/>
    </g>
</svg>
