<svg width="362" height="340" viewBox="0 0 362 340" fill="none" xmlns="http://www.w3.org/2000/svg">
<g clip-path="url(#clip0_2677_18685)">
<path fill-rule="evenodd" clip-rule="evenodd" d="M250.586 49.3226C248.481 46.9494 250.332 47.3238 249.418 44.1342C248.683 41.5635 249.815 42.0263 249.71 39.6062C249.636 37.9237 251.289 37.4803 251.321 35.4179C251.343 33.915 253.052 32.6318 254.434 32.5047C261.142 31.8886 258.612 35.4414 261.137 29.4201C261.768 27.9117 264.713 22.4982 267.08 24.9542C267.993 25.9032 266.111 30.4824 269.324 35.8986C271.228 39.1075 273.144 37.7607 272.167 41.768C271.611 44.0458 269.856 51.501 268.147 52.9307C265.588 55.0717 253.521 51.2288 250.584 49.3212L250.586 49.3226Z" fill="#F5A623"/>
<path fill-rule="evenodd" clip-rule="evenodd" d="M279.425 58.36C281.551 58.2426 281.785 55.6898 282.262 53.9908C282.825 51.9864 285.571 42.6168 285.578 41.1512C285.041 38.9355 282.755 38.7821 280.811 38.3125C279.469 37.9879 273.923 36.3026 273.068 36.3496C270.756 36.7143 270.69 39.0722 270.16 41.0296C269.709 42.7024 266.869 52.6163 266.913 53.4521C267.025 55.5752 269.471 55.7782 271.169 56.2548C272.819 56.7162 277.976 58.2688 279.425 58.36Z" fill="#1DBDC0"/>
<path fill-rule="evenodd" clip-rule="evenodd" d="M268.165 52.9236C268.133 55.3727 271.671 54.2994 270.592 52.4125C270.025 51.4207 268.453 51.5132 268.165 52.9236Z" fill="#FCF1E2"/>
<path fill-rule="evenodd" clip-rule="evenodd" d="M208.162 95.9807C232.582 105.035 216.763 100.219 215.739 83.1148C215.336 70.3733 222.807 48.4789 205.694 44.3528C195.786 42.3872 163.592 42.6054 153.639 45.4469C139.098 50.1849 138.138 59.4537 138.02 73.3805C137.853 93.3105 149.746 91.9251 166.268 91.7206C180.554 91.5438 194.482 91.1874 208.162 95.9793V95.9807Z" fill="#F5A623"/>
<path fill-rule="evenodd" clip-rule="evenodd" d="M181.542 72.6691C176.961 77.0936 167.626 70.7159 172.359 64.2208C175.014 60.5782 180.637 60.9042 182.729 64.7955C184.177 67.4891 183.754 70.5322 181.542 72.6691Z" fill="#FCF1E2"/>
<path fill-rule="evenodd" clip-rule="evenodd" d="M157.217 73.934C152.448 75.1648 146.414 69.7513 150.443 64.2203C152.926 60.8112 158.009 60.8775 160.366 64.0891C162.953 67.6129 161.516 72.8261 157.217 73.934Z" fill="#FCF1E2"/>
<path fill-rule="evenodd" clip-rule="evenodd" d="M204.301 72.1754C202.419 74.4891 199.261 74.5458 196.919 73.3785C193.814 71.8314 191.77 68.0548 194.563 64.2202C196.417 61.6744 199.721 61.0666 202.257 62.2601C206.157 64.0931 206.919 68.9596 204.301 72.1768V72.1754Z" fill="#FCF1E2"/>
<path fill-rule="evenodd" clip-rule="evenodd" d="M150.39 242.934C146.482 241.56 148.831 240.814 145.766 237.75C143.295 235.281 144.881 235.092 143.227 232.394C142.078 230.52 143.683 228.966 142.411 226.591C141.483 224.861 142.619 222.312 144.119 221.291C151.387 216.338 150.75 221.997 149.815 213.522C149.581 211.401 149.508 203.352 153.77 204.657C155.414 205.161 156.17 211.583 163.276 215.731C167.484 218.189 168.818 215.436 170.243 220.631C171.054 223.586 173.778 233.209 172.733 235.925C171.168 239.992 154.954 243.252 150.391 242.935L150.39 242.934Z" fill="#F5A623"/>
<path fill-rule="evenodd" clip-rule="evenodd" d="M189.051 234.976C191.405 233.494 190.051 230.432 189.519 228.19C188.892 225.543 186.085 213.104 185.162 211.427C183.143 209.236 180.435 210.511 177.918 211.206C176.18 211.687 168.78 213.276 167.832 213.872C165.423 215.754 166.842 218.487 167.481 221.059C168.027 223.257 171.071 236.376 171.65 237.301C173.124 239.655 176.047 238.337 178.288 237.803C180.465 237.285 187.338 235.787 189.049 234.975L189.051 234.976Z" fill="#1DBDC0"/>
<path fill-rule="evenodd" clip-rule="evenodd" d="M172.746 235.905C174.262 238.721 177.62 235.254 175.193 233.784C173.918 233.012 172.179 234.113 172.746 235.905Z" fill="#FCF1E2"/>
<path fill-rule="evenodd" clip-rule="evenodd" d="M99.1883 150.438C97.1556 148.772 98.7185 148.836 97.5535 146.345C96.6139 144.338 97.6019 144.569 97.1984 142.602C96.9193 141.236 98.2127 140.656 97.9681 138.963C97.7899 137.73 99.0197 136.456 100.134 136.172C105.541 134.789 103.936 138.027 105.213 132.77C105.533 131.453 107.232 126.636 109.492 128.337C110.364 128.993 109.424 132.988 112.764 136.999C114.741 139.375 116.134 138.023 115.859 141.429C115.703 143.367 115.244 149.697 114.034 151.09C112.22 153.178 101.843 151.614 99.1897 150.438H99.1883Z" fill="#F5A623"/>
<path fill-rule="evenodd" clip-rule="evenodd" d="M123.971 154.055C125.697 153.681 125.551 151.561 125.72 150.109C125.919 148.395 126.938 140.368 126.751 139.169C126.021 137.425 124.13 137.599 122.478 137.47C121.338 137.38 116.579 136.726 115.885 136.878C114.042 137.479 114.296 139.417 114.121 141.089C113.97 142.517 112.946 151.001 113.091 151.678C113.461 153.401 115.489 153.247 116.942 153.413C118.353 153.575 122.777 154.169 123.973 154.054L123.971 154.055Z" fill="#1DBDC0"/>
<path fill-rule="evenodd" clip-rule="evenodd" d="M114.045 151.08C114.339 153.089 117.093 151.746 115.964 150.344C115.37 149.606 114.096 149.888 114.045 151.08Z" fill="#FCF1E2"/>
<path fill-rule="evenodd" clip-rule="evenodd" d="M310.482 13.8037L334.449 25.9609L333.948 36.0489L329.726 32.2267L331.535 30.1119L310.482 13.8037Z" fill="#787878"/>
<path fill-rule="evenodd" clip-rule="evenodd" d="M331.536 30.1119L329.727 32.2267L323.891 39.0492L310.483 13.8037L331.536 30.1119Z" fill="#313131"/>
<path fill-rule="evenodd" clip-rule="evenodd" d="M334.45 25.9609L310.482 13.8037L344.859 20.7519L334.45 25.9609Z" fill="#313131"/>
<path fill-rule="evenodd" clip-rule="evenodd" d="M338.116 37.905C337.725 37.5804 337.124 37.9036 337.176 38.4078C337.187 38.5597 337.27 38.7034 337.386 38.8001L337.569 38.9465L337.853 39.1813L338.134 39.4217L338.412 39.6676L338.685 39.919L338.956 40.1745L339.072 40.2892C339.514 40.7229 340.238 40.2574 340.017 39.669C339.987 39.5944 339.945 39.5281 339.887 39.4714L339.757 39.343L339.473 39.0736L339.185 38.8098L338.894 38.5514L338.598 38.2987L338.3 38.0514L338.117 37.905H338.116ZM343.562 44.0782C343.287 43.6445 342.633 43.7481 342.51 44.2467C342.477 44.4001 342.496 44.552 342.581 44.686L342.792 45.0341L342.999 45.3877L343.203 45.7469L343.402 46.1116L343.596 46.4831L343.682 46.653C343.805 46.9003 344.091 47.0288 344.358 46.9514C344.706 46.8506 344.877 46.4638 344.717 46.1392L344.623 45.9541L344.42 45.5673L344.211 45.1861L343.998 44.8117L343.782 44.4429L343.56 44.0796L343.562 44.0782ZM346.871 51.5983C346.708 51.0195 345.86 51.0457 345.747 51.6618C345.733 51.7502 345.737 51.8276 345.76 51.9146L345.886 52.3456L346.016 52.8138L346.142 53.289L346.262 53.7697L346.345 54.1178C346.508 54.7643 347.43 54.6828 347.484 54.0267C347.486 53.9659 347.484 53.9162 347.47 53.8568L347.384 53.4962L347.26 53.0003L347.13 52.5113L346.996 52.0292L346.87 51.5983H346.871ZM348.447 59.6142C348.39 59.0341 347.583 58.8945 347.34 59.4498C347.301 59.5452 347.287 59.6322 347.297 59.7344L347.336 60.088L347.392 60.6599L347.444 61.2401L347.491 61.8271L347.503 62.0095C347.518 62.2277 347.649 62.4142 347.85 62.5026C348.244 62.6753 348.684 62.3645 348.655 61.9363L348.642 61.7429L348.595 61.1448L348.542 60.5535L348.484 59.9692L348.445 59.6156L348.447 59.6142ZM348.816 67.7545C348.828 67.1136 347.937 66.9243 347.696 67.5418C347.674 67.6012 347.663 67.6633 347.662 67.7255C347.645 68.4866 347.616 69.2464 347.567 70.0061C347.55 70.223 347.662 70.4274 347.846 70.5407C348.219 70.7631 348.684 70.5172 348.719 70.0848C348.77 69.3085 348.801 68.5322 348.817 67.7531L348.816 67.7545ZM348.011 75.8754C348.122 75.2179 347.225 74.9237 346.925 75.5191C346.903 75.5674 346.884 75.6171 346.876 75.671C346.743 76.4211 346.59 77.167 346.425 77.9102C346.37 78.1505 346.48 78.4061 346.692 78.5318C347.032 78.7348 347.463 78.547 347.553 78.163C347.72 77.4032 347.877 76.6421 348.011 75.8754ZM345.975 83.7795C346.157 83.2325 345.531 82.7822 345.063 83.1455C344.973 83.2242 344.924 83.2905 344.883 83.4038C344.637 84.1248 344.379 84.8404 344.102 85.5518C344.04 85.7079 344.051 85.8888 344.131 86.0366C344.367 86.4676 344.996 86.4289 345.177 85.9731C345.459 85.2479 345.723 84.5171 345.975 83.7809V83.7795ZM342.777 91.2857C342.869 91.1076 342.864 90.9017 342.764 90.7291C342.535 90.3368 341.963 90.3492 341.753 90.7512C341.402 91.428 341.036 92.0938 340.657 92.7541C340.408 93.2031 340.798 93.7211 341.296 93.6036C341.456 93.5608 341.571 93.4752 341.656 93.3329C341.852 92.9903 342.045 92.6478 342.235 92.3024C342.418 91.9654 342.599 91.6269 342.776 91.2871L342.777 91.2857ZM338.457 98.2118C338.579 98.053 338.604 97.8333 338.529 97.6496C338.352 97.2311 337.806 97.162 337.531 97.5225C337.082 98.1303 336.611 98.7367 336.13 99.3183C335.743 99.7852 336.252 100.469 336.825 100.206C336.901 100.169 336.965 100.121 337.019 100.055C337.231 99.7962 337.439 99.5338 337.646 99.2727C337.92 98.9218 338.193 98.5696 338.457 98.2104V98.2118ZM333.039 104.333C333.493 103.907 333.036 103.147 332.431 103.375C332.362 103.403 332.304 103.44 332.248 103.491L331.886 103.831L331.426 104.25L331.194 104.457L330.96 104.661L330.55 105.014C330.054 105.44 330.531 106.239 331.155 105.983C331.205 105.961 331.255 105.931 331.296 105.895L331.719 105.532L331.959 105.322L332.197 105.109L332.433 104.895C332.637 104.708 332.837 104.523 333.037 104.334L333.039 104.333ZM326.585 109.365C327.109 109.033 326.82 108.22 326.193 108.304C326.114 108.318 326.042 108.343 325.975 108.385L325.73 108.539L325.465 108.702L325.199 108.863L324.933 109.022L324.663 109.18L324.394 109.334L324.016 109.546C323.787 109.671 323.668 109.941 323.734 110.194C323.83 110.56 324.239 110.739 324.572 110.558L324.964 110.339L325.242 110.178L325.519 110.017L325.794 109.852L326.067 109.687L326.339 109.518L326.584 109.365H326.585ZM319.252 113.002C319.897 112.753 319.657 111.799 318.967 111.889C318.927 111.895 318.892 111.904 318.854 111.918L318.413 112.078L318.113 112.183L317.813 112.285L317.512 112.386L317.209 112.484L316.905 112.579L316.699 112.641C316.174 112.806 316.145 113.525 316.654 113.731C316.775 113.781 316.905 113.782 317.031 113.748L317.247 113.683L317.56 113.585L317.873 113.484L318.183 113.38L318.493 113.274L318.801 113.165L319.252 113.001V113.002ZM311.31 115.015C311.502 114.991 311.66 114.871 311.748 114.701C311.953 114.282 311.615 113.813 311.154 113.871L310.882 113.909L310.553 113.952L310.222 113.992L309.891 114.03L309.558 114.064L309.223 114.096L308.89 114.125C308.65 114.148 308.458 114.303 308.384 114.534C308.273 114.932 308.574 115.303 308.986 115.276L309.328 115.245L309.672 115.212L310.015 115.176L310.356 115.137L310.698 115.096L311.036 115.052L311.309 115.013L311.31 115.015ZM303.133 115.346C303.349 115.357 303.538 115.26 303.657 115.079C303.891 114.702 303.646 114.23 303.205 114.194L303.005 114.183L302.648 114.159L302.29 114.133L301.931 114.103L301.572 114.07L301.211 114.034L300.935 114.003C300.358 113.94 300.052 114.668 300.526 115.039C300.61 115.1 300.701 115.137 300.805 115.15L301.091 115.18L301.461 115.218L301.83 115.252L302.199 115.283L302.567 115.31L302.933 115.335L303.133 115.346ZM295.051 114.144C295.677 114.291 296.044 113.455 295.491 113.093C295.436 113.06 295.382 113.035 295.319 113.021L294.899 112.92L294.517 112.825L294.134 112.726L293.75 112.623L293.366 112.518L293.11 112.445C292.86 112.372 292.588 112.478 292.454 112.702C292.261 113.028 292.424 113.447 292.789 113.553L293.055 113.629L293.448 113.737L293.84 113.842L294.231 113.943L294.621 114.041L295.049 114.144H295.051ZM287.255 111.772C287.819 111.978 288.286 111.296 287.884 110.843C287.819 110.774 287.746 110.723 287.658 110.69L287.247 110.54L286.52 110.267L285.802 109.988L285.517 109.873C284.932 109.641 284.453 110.366 284.888 110.812C284.945 110.868 285.008 110.912 285.082 110.942L285.377 111.061L286.107 111.346L286.846 111.623L287.257 111.772H287.255ZM279.767 108.559C279.996 108.678 280.285 108.627 280.458 108.435C280.714 108.151 280.635 107.71 280.295 107.533L279.695 107.229L279.057 106.896L278.427 106.559L278.268 106.472C277.715 106.166 277.137 106.848 277.542 107.345C277.591 107.401 277.642 107.445 277.705 107.481L277.875 107.573L278.518 107.917L279.169 108.256L279.768 108.561L279.767 108.559ZM272.73 104.449C272.855 104.536 273.019 104.569 273.166 104.54C273.67 104.438 273.804 103.792 273.383 103.497L273.092 103.301L272.537 102.915L271.99 102.526L271.513 102.178C270.989 101.798 270.327 102.429 270.698 102.975C270.738 103.029 270.772 103.064 270.826 103.106L271.314 103.462L271.872 103.859L272.439 104.252L272.729 104.45L272.73 104.449ZM266.313 99.415C266.769 99.8266 267.471 99.3418 267.233 98.7616C267.2 98.6856 267.154 98.6193 267.092 98.5641L266.906 98.3955L266.436 97.9604L265.973 97.5211L265.516 97.0791L265.434 96.9976C265.312 96.8774 265.163 96.8222 264.992 96.8291C264.492 96.865 264.268 97.4548 264.616 97.8126L264.707 97.9038L265.173 98.3555L265.645 98.803L266.125 99.2478L266.312 99.4177L266.313 99.415Z" fill="#DC3226"/>
<path fill-rule="evenodd" clip-rule="evenodd" d="M64.2997 86.4641C70.7103 88.8414 73.1023 89.8332 73.5666 89.4989C74.3239 88.9561 69.9668 84.8977 69.5287 77.5848C69.2496 68.7925 74.4068 53.6834 62.5972 50.8364C55.7596 49.4799 47.6479 48.6566 40.7786 50.6168C30.7447 53.8864 30.0814 60.2834 30.0012 69.8935C29.8865 83.6462 38.0922 82.624 49.4941 82.5494C57.5505 82.4969 58.6298 84.5288 64.2997 86.4627V86.4641Z" fill="#1DBDC0"/>
<path fill-rule="evenodd" clip-rule="evenodd" d="M52.7567 73.8802C50.7985 72.409 41.2165 63.2755 43.9886 59.7048C46.2411 56.8039 50.2306 58.9533 51.5309 62.1829C52.6751 60.0073 54.3845 56.8371 57.4012 58.2433C62.9066 60.8098 55.1239 71.6893 52.7567 73.8802Z" fill="#FCF1E2"/>
<path fill-rule="evenodd" clip-rule="evenodd" d="M337.59 77.7265L238.297 90.5399C235.171 90.9432 232.921 95.1038 232.921 98.9371V356.913C232.921 360.881 235.174 364.902 238.297 365.31L335.619 378.062C345.544 379.362 350 371.04 350 366.243V90.6656C350 80.5707 343.709 76.9364 337.59 77.7265Z" fill="#787878"/>
<path fill-rule="evenodd" clip-rule="evenodd" d="M335.018 80.2026L236.491 90.705C233.511 91.0227 231.083 94.7896 231.083 99.0773V356.748C231.083 361.036 233.511 364.803 236.491 365.121L335.018 375.623C338.488 375.993 341.339 372.487 341.339 367.831V87.9948C341.339 83.3383 338.486 79.8324 335.018 80.2026Z" fill="#C2ADB3"/>
<path fill-rule="evenodd" clip-rule="evenodd" d="M335.088 80.8628C336.646 80.6971 337.997 81.443 338.963 82.6323C340.166 84.1117 340.674 86.1161 340.674 87.9947V367.828C340.674 369.707 340.164 371.711 338.963 373.19C337.997 374.38 336.646 375.126 335.088 374.96L236.561 364.457C235.131 364.306 233.977 363.22 233.228 362.061C232.228 360.512 231.748 358.58 231.748 356.747V99.0759C231.748 97.2428 232.228 95.3103 233.228 93.7618C233.976 92.6029 235.131 91.5171 236.561 91.3652L335.088 80.8628Z" fill="#221230"/>
<path fill-rule="evenodd" clip-rule="evenodd" d="M334.972 83.6049C335.743 83.5082 336.49 83.8909 336.856 84.3426C337.653 85.3233 337.96 86.7544 337.96 87.9948V367.828C337.96 369.069 337.653 370.498 336.856 371.48C336.488 371.932 335.725 372.298 334.986 372.219L237.314 361.81C236.452 361.717 235.76 360.981 235.508 360.591C234.794 359.485 234.462 358.056 234.462 356.748V99.076C234.462 97.7679 234.794 96.3396 235.508 95.2331C235.76 94.8436 236.315 94.1211 237.32 94.0134L334.972 83.6049Z" fill="white"/>
<path fill-rule="evenodd" clip-rule="evenodd" d="M345.169 143.199H344.004C343.16 143.199 342.469 143.893 342.469 144.733V161.222C342.469 162.062 343.162 162.756 344.004 162.756H345.169C346.009 162.756 346.703 162.066 346.703 161.222V144.733C346.703 143.889 346.012 143.199 345.169 143.199Z" fill="#221230"/>
<path fill-rule="evenodd" clip-rule="evenodd" d="M345.169 166.176H344.004C343.16 166.176 342.469 166.869 342.469 167.709V184.198C342.469 185.038 343.162 185.732 344.004 185.732H345.169C346.006 185.732 346.703 185.041 346.703 184.198V167.709C346.703 166.865 346.012 166.176 345.169 166.176Z" fill="#221230"/>
<path fill-rule="evenodd" clip-rule="evenodd" d="M350 90.6672V366.245C350 370.891 345.817 378.849 336.528 378.156C344.27 377.547 347.784 370.505 347.784 366.245V182.433C347.817 182.291 347.833 182.143 347.833 181.992V163.093C347.833 162.941 347.815 162.793 347.784 162.651V155.204C347.817 155.061 347.833 154.914 347.833 154.763V135.862C347.833 135.71 347.815 135.562 347.784 135.42V90.6685C347.784 82.0655 343.215 78.1549 338.077 77.6756C344.037 77.1383 349.999 80.8416 349.999 90.6685L350 90.6672Z" fill="#221230"/>
<path fill-rule="evenodd" clip-rule="evenodd" d="M337.96 190.509V367.829C337.96 369.07 337.653 370.5 336.856 371.482C336.49 371.933 335.725 372.299 334.988 372.221L333.357 372.047C301.47 368.649 277.46 366.089 245.571 362.689C250.69 325.298 269.55 334.04 264.195 283.917C260.547 249.771 247.661 202.915 288.893 186.834C303.516 181.131 328.83 183.761 337.959 190.509H337.96Z" fill="#FFF5F4"/>
<path fill-rule="evenodd" clip-rule="evenodd" d="M286.659 282.382C298.531 280.035 318.434 275.805 330.032 277.859C330.956 307.692 327.265 338.576 318.963 370.513L278.671 366.218C276.746 340.84 279.409 312.894 286.659 282.382Z" fill="#B91408"/>
<path fill-rule="evenodd" clip-rule="evenodd" d="M337.96 267.594C324.766 269.789 312.33 273.69 301.305 278.812C301.34 305.308 312.023 336.385 333.357 372.045L334.988 372.219C335.725 372.297 336.49 371.931 336.856 371.48C337.653 370.499 337.96 369.068 337.96 367.827V267.593V267.594Z" fill="#DC3226"/>
<path fill-rule="evenodd" clip-rule="evenodd" d="M222.698 167.583C220.683 169.005 219.73 171.269 219.841 174.374C220.012 176.36 219.371 178.818 217.918 181.745C221.736 183.143 224.1 183.389 225.009 182.481C225.81 176.225 225.041 171.258 222.7 167.582L222.698 167.583Z" fill="#FFA398"/>
<path fill-rule="evenodd" clip-rule="evenodd" d="M218.686 164.824C222.873 165.986 223.13 167.963 221.49 171.217C221.306 174.361 219.109 175.401 216.218 174.356C214.689 173.795 213.584 173.197 212.688 172.665C210.653 171.456 210.041 168.863 212.206 168.836C210.285 168.112 210.57 165.855 212.527 166.275C210.397 165.45 210.859 163.333 212.542 163.566C210.956 162.342 212.343 160.748 213.777 161.381C217.351 163.207 218.058 164.105 218.687 164.824H218.686Z" fill="#FAA399"/>
<path fill-rule="evenodd" clip-rule="evenodd" d="M213.145 155.154C217.798 153.863 224.023 154.084 227.192 157.331C226.874 159.204 226.044 160.345 224.902 160.869C219.784 163.033 219.998 168.763 219.427 173.396C219.198 175.253 218.577 175.319 216.868 175.615C215.246 175.895 213.108 176.025 211.744 174.913C210.697 174.059 211.444 173.38 211.954 172.496C214.341 168.352 215.283 163.788 214.368 159.069C214.318 158.822 214.263 158.579 214.205 158.334C213.934 157.236 213.576 156.2 213.147 155.156L213.145 155.154Z" fill="#D4D4D4"/>
<path fill-rule="evenodd" clip-rule="evenodd" d="M219.069 166.144C219.578 161.404 221.996 158.824 225.01 156.81C225.293 156.621 225.582 156.435 225.877 156.256C226.357 156.569 226.798 156.926 227.192 157.331C226.874 159.204 226.044 160.345 224.902 160.868C219.784 163.033 219.998 168.763 219.427 173.396C219.198 175.252 218.577 175.318 216.868 175.614C215.246 175.894 213.108 176.024 211.744 174.912C211.036 174.336 211.148 173.839 211.451 173.306C216.281 174.988 218.38 172.568 219.069 166.145V166.144Z" fill="#B8B6B6"/>
<path fill-rule="evenodd" clip-rule="evenodd" d="M194.621 126.813C190.302 126.143 185.593 133.382 184.101 142.984C182.609 152.586 184.901 160.912 189.22 161.582C193.539 162.252 198.25 155.013 199.741 145.411C201.232 135.809 198.941 127.482 194.621 126.813Z" fill="#D4D4D4"/>
<path fill-rule="evenodd" clip-rule="evenodd" d="M229.801 156.213C229.625 156.248 229.455 156.14 229.293 156.081C231.553 153.203 232.222 149.95 231.301 146.324C231.317 146.327 231.335 146.324 231.347 146.331L234.122 147.958C235.345 148.675 236.49 149.504 236.271 150.905L235.87 153.464C235.65 154.865 234.317 155.344 232.924 155.612L229.801 156.216V156.213Z" fill="#632129"/>
<path fill-rule="evenodd" clip-rule="evenodd" d="M213.145 155.155C205.829 154.753 199.764 155.768 194.951 158.201C197.122 155.272 198.918 150.7 199.74 145.412C200.557 140.155 200.239 135.278 199.074 131.832C206.396 140.465 219.359 143.528 230.143 144.741C231.514 144.895 231.511 145.279 231.784 146.594C231.927 147.293 232.039 147.983 232.101 148.694C232.176 151.632 231.231 154.867 229.079 156.955C228.155 157.852 227.701 157.427 226.568 157.156C225.619 156.93 224.652 156.735 223.694 156.539C220.207 155.85 216.695 155.352 213.143 155.152L213.145 155.155Z" fill="#D4D4D4"/>
<path fill-rule="evenodd" clip-rule="evenodd" d="M193.816 140.661C192.91 140.52 191.253 141.81 190.941 143.826C190.627 145.842 191.777 147.822 192.683 147.964C193.59 148.105 194.578 146.584 194.892 144.567C195.205 142.551 194.723 140.802 193.816 140.661Z" fill="#632129"/>
<path fill-rule="evenodd" clip-rule="evenodd" d="M200.141 144.801C200.606 141.443 200.611 138.258 200.231 135.519C208.022 143.453 220.753 146.08 231.453 146.987C231.574 146.996 231.694 147.007 231.816 147.017C231.833 147.018 231.851 147.02 231.869 147.021C231.973 147.575 232.055 148.127 232.104 148.694C232.111 148.958 232.108 149.223 232.099 149.49C231.966 149.467 231.833 149.445 231.701 149.423C215.035 146.629 204.516 145.089 200.141 144.801Z" fill="#F3F3F3"/>
<path fill-rule="evenodd" clip-rule="evenodd" d="M197.531 154.284C207.146 151.68 221.239 153.459 229.92 155.211C230.083 155.244 230.243 155.277 230.402 155.309C230.204 155.625 229.987 155.929 229.754 156.218C229.544 156.476 229.32 156.723 229.081 156.955C228.346 157.668 227.909 157.546 227.192 157.331C227.007 157.276 226.802 157.213 226.57 157.157C225.621 156.93 224.653 156.736 223.696 156.539C220.209 155.85 216.696 155.353 213.145 155.153C206.121 154.767 200.25 155.687 195.533 157.914C195.623 157.784 195.711 157.651 195.799 157.517C196.418 156.566 197 155.48 197.531 154.284Z" fill="#B8B6B6"/>
<path fill-rule="evenodd" clip-rule="evenodd" d="M234.702 155.038C235.499 152.194 234.631 150.346 232.098 149.492C232.108 149.225 232.111 148.959 232.104 148.696C232.054 148.13 231.973 147.577 231.869 147.023C231.843 146.881 231.815 146.739 231.785 146.597C231.785 146.594 231.783 146.59 231.782 146.587L234.12 147.957C235.343 148.674 236.489 149.503 236.269 150.904L235.868 153.463C235.749 154.22 235.304 154.709 234.7 155.039L234.702 155.038Z" fill="#ED5166"/>
<path fill-rule="evenodd" clip-rule="evenodd" d="M184.384 154.752C188.903 156.497 193.54 155.271 198.294 151.076C197.52 153.485 196.54 155.6 195.444 157.285C193.567 160.172 191.35 161.794 189.24 161.467C187.131 161.139 185.511 158.921 184.597 155.601C184.521 155.325 184.45 155.042 184.384 154.751V154.752Z" fill="#F3F3F3"/>
<path fill-rule="evenodd" clip-rule="evenodd" d="M200.04 138.089C196.034 132.352 190.963 132.964 184.823 139.925C185.66 136.428 186.923 133.381 188.399 131.112C190.277 128.226 192.494 126.603 194.604 126.93C196.713 127.258 198.334 129.476 199.247 132.795C199.674 134.347 199.946 136.138 200.042 138.089H200.04Z" fill="#B8B6B6"/>
<path fill-rule="evenodd" clip-rule="evenodd" d="M194.785 125.74C192.162 125.333 189.527 127.164 187.388 130.451C185.408 133.496 183.798 137.859 183.027 142.82L182.999 142.999C182.264 147.889 182.479 152.462 183.43 155.916C184.472 159.703 186.43 162.247 189.054 162.655C191.677 163.061 194.313 161.23 196.452 157.943C198.432 154.898 200.043 150.535 200.813 145.574C201.583 140.618 201.371 135.975 200.408 132.476C199.366 128.69 197.409 126.146 194.784 125.738L194.785 125.74ZM189.213 131.642C190.881 129.078 192.761 127.624 194.456 127.886C196.149 128.149 197.498 130.102 198.309 133.047C199.199 136.279 199.388 140.601 198.667 145.247C197.946 149.887 196.456 153.945 194.629 156.753C192.961 159.317 191.082 160.772 189.386 160.508C187.693 160.246 186.345 158.292 185.533 155.347C184.644 152.115 184.454 147.793 185.176 143.149L185.181 143.11C185.904 138.485 187.391 134.442 189.213 131.642Z" fill="#451C22"/>
<path fill-rule="evenodd" clip-rule="evenodd" d="M195.421 157.506C197.366 154.519 198.953 150.259 199.738 145.411C199.753 145.322 199.767 145.23 199.783 145.139C200.537 140.278 200.349 135.72 199.433 132.246C199.415 132.177 199.397 132.109 199.378 132.041C198.565 129.091 197.197 126.894 195.389 125.875C197.711 126.555 199.449 128.99 200.41 132.478C200.505 132.823 200.592 133.178 200.672 133.546C200.867 134.434 201.017 135.383 201.119 136.382C201.383 138.947 201.333 141.836 200.918 144.86C200.885 145.098 200.851 145.337 200.813 145.576C200.33 148.693 199.513 151.576 198.481 154.043C197.975 155.252 197.418 156.361 196.824 157.349C196.701 157.552 196.578 157.751 196.452 157.943C194.313 161.231 191.678 163.062 189.055 162.655C188.476 162.565 187.929 162.372 187.417 162.083C187.615 162.141 187.817 162.186 188.023 162.218C190.408 162.588 192.805 161.106 194.828 158.36C194.867 158.306 194.907 158.252 194.947 158.197C195.106 157.975 195.264 157.744 195.42 157.506H195.421Z" fill="#ED5166"/>
<path fill-rule="evenodd" clip-rule="evenodd" d="M186.223 138.427C185.792 139.896 185.439 141.466 185.182 143.11L185.176 143.149C184.471 147.681 184.636 151.906 185.47 155.113C185.491 155.191 185.512 155.27 185.534 155.347C186.154 157.602 187.09 159.276 188.255 160.054C186.609 159.732 185.298 157.797 184.503 154.91C184.491 154.867 184.48 154.824 184.468 154.781C183.626 151.627 183.44 147.463 184.104 142.983C184.117 142.892 184.131 142.802 184.145 142.711L184.151 142.672C184.873 138.047 186.36 134.004 188.183 131.204C188.41 130.855 188.64 130.527 188.874 130.221C189.569 129.31 190.29 128.595 191.01 128.116C191.828 127.57 192.646 127.328 193.426 127.45C193.822 127.512 194.201 127.667 194.558 127.904C194.524 127.897 194.491 127.892 194.458 127.888C192.763 127.624 190.882 129.078 189.215 131.644C188.041 133.448 187.006 135.768 186.225 138.429L186.223 138.427Z" fill="#632129"/>
<path fill-rule="evenodd" clip-rule="evenodd" d="M216.374 169.953C217.224 170.433 217.042 171.608 214.67 171.39C214.408 171.366 214.118 171.324 213.798 171.263C213.067 171.122 211.893 170.785 212.003 172.162C210.545 170.855 210.309 168.861 212.206 168.836C210.286 168.112 210.57 165.853 212.527 166.275C210.398 165.45 210.859 163.333 212.542 163.566C210.954 162.342 212.342 160.748 213.776 161.381C213.815 161.4 213.854 161.421 213.891 161.44C214.263 161.631 214.601 161.812 214.914 161.983C217.306 163.407 217.431 164.8 216.123 165.242C216.076 165.257 216.025 165.315 216.13 165.342C217.646 165.746 217.885 167.617 216.313 167.816C217.679 168.084 218.154 169.677 216.374 169.953Z" fill="#FAA399"/>
<path fill-rule="evenodd" clip-rule="evenodd" d="M221.492 171.217C219.212 168.869 218.873 166.45 218.688 164.824C218.586 164.338 217.73 163.063 216.849 163.158C215.749 163.277 214.534 163.685 213.796 162.769C213.212 162.045 214.35 161.604 214.907 161.35C216.601 160.592 218.01 160.59 219.6 161.617C222.595 163.551 223.8 168.333 221.492 171.217Z" fill="#FAA399"/>
<path fill-rule="evenodd" clip-rule="evenodd" d="M214.453 162.452C213.887 162.821 215.796 162.273 215.557 161.6C215.51 161.469 215.422 161.438 215.416 161.65C215.404 162.071 214.767 162.295 214.453 162.452Z" fill="#EB7165"/>
<path fill-rule="evenodd" clip-rule="evenodd" d="M215.022 164.119C215.345 164.732 216.165 164.923 215.709 164.582C215.5 164.426 214.907 163.992 215.34 163.739C215.609 163.583 216.525 163.847 216.184 163.6C215.92 163.409 214.813 163.374 215.021 164.119H215.022Z" fill="#EB7165"/>
<path fill-rule="evenodd" clip-rule="evenodd" d="M215.685 166.175C215.957 165.94 216.837 166.285 216.593 166.032C216.388 165.821 215.219 165.777 215.404 166.534C215.542 166.878 215.82 167.097 216.186 167.169C216.704 167.27 215.835 166.796 215.805 166.774C215.546 166.579 215.418 166.404 215.685 166.176V166.175Z" fill="#EB7165"/>
<path fill-rule="evenodd" clip-rule="evenodd" d="M215.947 168.634C216.079 168.188 216.953 168.558 216.901 168.358C216.841 168.129 215.4 168.174 215.769 168.871C215.971 169.253 216.787 169.503 216.671 169.28C216.569 169.083 215.808 169.107 215.947 168.633V168.634Z" fill="#EB7165"/>
<path fill-rule="evenodd" clip-rule="evenodd" d="M215.585 170.41C215.623 170.077 216.229 170.333 216.186 170.168C216.131 169.956 215.115 170.068 215.473 170.645C215.621 170.884 216.202 171.193 216.152 170.982C216.112 170.808 215.537 170.84 215.584 170.41H215.585Z" fill="#EB7165"/>
<path fill-rule="evenodd" clip-rule="evenodd" d="M213.93 161.883C213.757 162.193 213.809 162.448 213.997 162.637C214.588 163.238 215.808 163.165 216.422 163.168C216.541 163.168 216.662 163.168 216.789 163.165C216.68 163.178 216.57 163.193 216.459 163.209C215.855 163.298 215.237 163.415 214.7 163.309C214.359 163.241 214.049 163.082 213.796 162.769C213.539 162.451 213.615 162.187 213.828 161.97C213.865 161.938 213.9 161.909 213.932 161.882L213.93 161.883Z" fill="#EB7165"/>
<path fill-rule="evenodd" clip-rule="evenodd" d="M226.804 178.477C225.32 178.582 222.961 179.191 218.756 180.315C198.951 250.558 242.316 252.81 283.101 235.739C283.352 224.735 276.401 198.194 262.226 193.891C256.857 197.784 250.834 202.914 246.457 203.692C235.546 205.631 229.78 193.571 226.805 178.477H226.804Z" fill="#FFC5AE"/>
<path fill-rule="evenodd" clip-rule="evenodd" d="M213.89 207.376C219.766 237.064 240.482 242.803 276.038 224.596C277.719 223.734 279.434 222.819 281.182 221.851C282.541 227.236 283.181 232.262 283.1 235.738C248.4 250.261 211.834 250.799 213.891 207.376H213.89Z" fill="#313131"/>
<path fill-rule="evenodd" clip-rule="evenodd" d="M227.759 177.602C228.17 178.266 228.206 179.523 228.212 180.212C228.223 181.534 228.592 183.584 228.655 184.935C228.682 185.493 228.414 185.442 227.858 185.522C224.347 186.025 221.405 186.123 217.599 185.885C217.052 185.85 217.071 185.692 217.038 185.138C216.926 183.314 216.907 177.955 217.925 176.87C218.287 176.484 219.067 176.514 219.655 176.473C221.191 176.363 226.534 175.623 227.76 177.602H227.759Z" fill="#221B42"/>
<path fill-rule="evenodd" clip-rule="evenodd" d="M319.241 183.814C307.446 170.276 301.995 158.387 303.153 149.056C297.761 149.426 288.922 151.9 284.153 157.044C288.795 166.643 288.585 178.409 283.526 192.343C297.325 197.241 309.23 194.4 319.239 183.816L319.241 183.814Z" fill="#FAA399"/>
<path fill-rule="evenodd" clip-rule="evenodd" d="M287.456 170.766C287.348 167.788 286.844 164.914 286.135 162.245C287.704 162.386 289.515 162.236 291.618 161.756C298.021 160.29 301.867 156.056 303.153 149.056C303.03 150.05 302.982 151.075 303.008 152.128C301.851 163.166 294.045 168.694 287.456 170.766Z" fill="#EB7165"/>
<path fill-rule="evenodd" clip-rule="evenodd" d="M277.784 301.863C300.75 296.988 320.808 294.397 337.96 294.09V305.02C330.096 306.472 322.204 307.743 314.254 308.709C305.498 309.75 291.495 311.068 283.041 308.945C282.26 308.749 280.707 308.384 280.397 307.532C280.058 306.602 280.085 305.555 279.661 304.446C279.233 303.41 278.558 302.635 277.784 301.861V301.863Z" fill="#221B42"/>
<path fill-rule="evenodd" clip-rule="evenodd" d="M262.224 193.89C263.185 204.147 265.445 214.436 268.878 224.805C265.81 243.199 273.002 279.336 277.784 301.862C282.791 305.507 302.85 304.411 337.96 298.574V169.594C325.889 166.44 308.685 166.922 292.984 178.603C273.014 186.333 266.172 190.984 262.224 193.89Z" fill="#FFC5AE"/>
<path fill-rule="evenodd" clip-rule="evenodd" d="M337.96 276.626C334.556 271.192 332.137 264.942 330.133 259.195C330.035 258.915 329.676 257.929 330 257.731C330.394 257.491 332.502 257.209 332.897 257.444C333.284 257.673 334.193 259.99 334.428 260.506C335.503 262.845 336.686 265.335 337.959 267.813V276.628L337.96 276.626Z" fill="#313131"/>
<path fill-rule="evenodd" clip-rule="evenodd" d="M275.879 292.205C276.184 293.882 276.502 295.554 276.832 297.219C278.756 294.85 281.005 285.805 281.282 284.111C281.995 279.731 282.629 268.792 282.092 264.408C281.875 262.638 280.005 263.05 279.72 264.886C278.783 275.028 279.748 281.097 276.237 291.228C276.158 291.456 276.028 291.796 275.88 292.205H275.879Z" fill="#313131"/>
<path fill-rule="evenodd" clip-rule="evenodd" d="M283.13 126.534C295.268 120.949 302.095 125.966 303.608 141.585C304.042 153.104 299.945 159.428 291.619 161.757C281.329 164.633 277.175 155.999 274.758 145.83C272.962 138.272 275.677 131.551 283.131 126.535L283.13 126.534Z" fill="#FAA399"/>
<path fill-rule="evenodd" clip-rule="evenodd" d="M303.153 149.056C304.662 147.717 304.459 142.909 303.63 142.362C299.183 141.583 295.951 136.435 293.936 126.914C288.315 126.021 282.798 128.061 277.441 131.837C271.038 126.371 274.131 119.253 279.332 119.658C280.34 113.366 287.933 113.465 293.252 118.603C295.974 121.231 299.021 123.218 301.484 124.574C304.841 126.424 306.224 125.717 310.607 127.104C316.02 128.815 318.035 135.882 313.994 140.898C318.249 142.139 317.862 151.208 312.76 152.129C311.007 157.202 302.887 154.061 303.155 149.056H303.153Z" fill="#313131"/>
<path fill-rule="evenodd" clip-rule="evenodd" d="M304.882 149.693C304.213 149.732 303.59 149.498 303.154 149.056C303.523 147.052 303.682 144.821 303.631 142.362C306.599 139.159 309.257 142.057 308.324 145.863C307.677 148.5 306.189 149.616 304.883 149.693H304.882Z" fill="#FAA399"/>
</g>
<defs>
<clipPath id="clip0_2677_18685">
<rect width="361.798" height="339.327" fill="white" transform="matrix(-1 0 0 1 362 0.673828)"/>
</clipPath>
</defs>
</svg>
