<svg xmlns="http://www.w3.org/2000/svg" width="80" height="80" viewBox="0 0 80 80">
    <g fill="none" fill-rule="evenodd">
        <path fill="#1DBDC0" stroke="#434A54" stroke-linecap="round" stroke-linejoin="round" stroke-width="1.5" d="M48.65 58.264h6.802v-4H48.65zM41.107 54.318H44V35.493h-2.893z"/>
        <path fill="#FFF" stroke="#434A54" stroke-linecap="round" stroke-linejoin="round" stroke-width="1.5" d="M43.952 54.318H63V35.493H43.952z"/>
        <path stroke="#434A54" stroke-linecap="round" stroke-linejoin="round" stroke-width="1.5" d="M38.13 53.443v4.781H17.102v-4.781a3.724 3.724 0 0 1 3.728-3.719h13.572a3.724 3.724 0 0 1 3.728 3.719z"/>
        <path stroke="#434A54" stroke-linecap="round" stroke-linejoin="round" stroke-width="1.5" d="M30.38 47.005v4.623l-2.764 2.665-.854-.823-1.91-1.842v-4.63l.011.002c1.804.505 3.712.507 5.518.005z"/>
        <path stroke="#434A54" stroke-linecap="round" stroke-linejoin="round" stroke-width="1.5" d="M36.298 29.96v8.749c0 4.828-3.885 8.745-8.678 8.745a8.624 8.624 0 0 1-6.136-2.56 8.767 8.767 0 0 1-2.54-6.185V29.96h17.354z"/>
        <path fill="#434A54" d="M32.65 38.611a.576.576 0 0 1-.574-.578v-1.217c0-.319.258-.578.574-.578.32 0 .576.259.576.578v1.217c0 .32-.257.578-.576.578M26.477 38.611a.576.576 0 0 1-.574-.578v-1.217c0-.319.257-.578.574-.578.319 0 .576.259.576.578v1.217c0 .32-.257.578-.576.578"/>
        <path fill="#1DBDC0" stroke="#434A54" stroke-linecap="round" stroke-linejoin="round" stroke-width="1.5" d="M34.148 32.337c-3.146 1.143-6.19.756-8.343.152-1.874-.526-3.074-1.22-3.074-1.22s-.79 3.838-3.788 3.838c0 0-1.995-3.554-1.931-6.845a3.03 3.03 0 0 1 3.014-2.98c.295 0 .598.043.9.139a5.528 5.528 0 0 1 5.524-3.608c.379.027.76.056 1.14.09l.222.02c.007 0 .014 0 .021.003 3.967.375 7.984 1.107 10.343-1.526 0 0 3.9 9.057-4.028 11.937"/>
        <path fill="#F4AF9D" d="M27.835 21.926l-.024-.002.024.002"/>
        <path fill="#434A54" d="M29.565 43.259c-.92 0-1.836-.35-2.536-1.056a.586.586 0 0 1 0-.82.572.572 0 0 1 .812 0 2.425 2.425 0 0 0 3.445 0 .572.572 0 0 1 .812 0 .581.581 0 0 1 0 .82 3.546 3.546 0 0 1-2.533 1.056M50.172 52.116h-3.597a.73.73 0 0 1-.726-.734c0-.408.323-.735.726-.735h3.597a.73.73 0 0 1 .729.735.732.732 0 0 1-.729.734M50.172 48.765h-3.597a.73.73 0 0 1-.726-.736c0-.406.323-.732.726-.732h3.597a.73.73 0 0 1 .729.732.732.732 0 0 1-.729.736M50.172 45.415h-3.597a.732.732 0 0 1-.726-.737c0-.406.323-.732.726-.732h3.597a.73.73 0 0 1 .729.732.734.734 0 0 1-.729.737M60.424 52.116h-3.595a.732.732 0 0 1-.729-.734.73.73 0 0 1 .729-.735h3.595a.73.73 0 0 1 .731.735.732.732 0 0 1-.731.734M60.424 48.765h-3.595a.732.732 0 0 1-.729-.736.73.73 0 0 1 .729-.732h3.595a.73.73 0 0 1 .731.732.733.733 0 0 1-.731.736M60.424 45.415h-3.595a.734.734 0 0 1-.729-.737.73.73 0 0 1 .729-.732h3.595a.734.734 0 1 1 0 1.469"/>
        <path stroke="#434A54" stroke-linecap="round" stroke-linejoin="round" stroke-width="1.5" d="M14 58.257h51.342"/>
    </g>
</svg>
