<svg xmlns="http://www.w3.org/2000/svg" width="80" height="80" viewBox="0 0 80 80">
    <g fill="none" fill-rule="evenodd">
        <path fill="#1DBDC0" d="M60.078 43.307l-1.712 3.774h5.386l-1.717-3.774z"/>
        <path fill="#39D9DC" d="M60.505 43.307l-.966 3.774h3.03l-.966-3.774z"/>
        <path fill="#1DBDC0" d="M60.898 43.307l-.282 3.774h.885l-.283-3.774z"/>
        <path stroke="#434A54" stroke-linecap="round" stroke-linejoin="round" stroke-width="1.5" d="M25.079 27.562V42.08c0 .85.864 1.417 1.658 1.093a31.258 31.258 0 0 1 23.766.022 1.196 1.196 0 0 0 1.653-1.1V27.563l-13.69 3.19-13.387-3.19z"/>
        <path stroke="#434A54" stroke-linecap="round" stroke-linejoin="round" stroke-width="1.5" d="M60.553 24.297L38.77 19.111a.76.76 0 0 0-.309 0l-21.781 5.186c-.672.16-.672 1.11 0 1.269l21.781 5.185a.61.61 0 0 0 .31 0l21.78-5.185c.673-.16.673-1.11 0-1.269z"/>
        <path fill="#434A54" d="M61.657 40.775h-1.2v-15.25h-.912l-.038-1.193h2.15z"/>
        <path fill="#434A54" d="M61.053 39.64c.976 0 1.765.912 1.765 2.038 0 1.12-.789 2.032-1.765 2.032-.976 0-1.765-.912-1.765-2.032 0-1.126.789-2.039 1.765-2.039"/>
        <path fill="#5E6772" d="M61.053 39.64c.57 0 1.04.912 1.04 2.038 0 1.12-.47 2.032-1.04 2.032-.57 0-1.04-.912-1.04-2.032 0-1.126.47-2.039 1.04-2.039"/>
        <path fill="#434A54" d="M61.053 39.64c.176 0 .325.912.325 2.038 0 1.12-.149 2.032-.325 2.032-.176 0-.32-.912-.32-2.032 0-1.126.144-2.039.32-2.039"/>
        <g stroke="#434A54" stroke-linecap="round" stroke-linejoin="round" stroke-width="1.5">
            <path d="M47.933 47.974c5.643-.34 4.134 5.03 4.067 6.026h-5c-.095-2.617-.095-4.284 0-5 .095-.716.406-1.058.933-1.026z"/>
            <path d="M47.933 47.974H17.677c-1.995 1.985-1.995 9.251 0 11.237h30.379c-2-1.986-2.256-10.658-.123-11.237"/>
            <path d="M46.438 53.52c0 2.314.496 4.628 1.493 5.621 0 0 2.614 1.905 2.784-5.62h-4.277"/>
            <path fill="#1DBDC0" d="M34.23 57.368v-8.406a1 1 0 0 0-1-1h-2.347a1 1 0 0 0-1 1v8.426l-3.504 4.416 1.941-.488.528 1.798 3.227-3.964 3.221 3.964.539-1.798 1.93.488-3.5-4.428a.03.03 0 0 0-.035-.008z"/>
        </g>
    </g>
</svg>
