<svg xmlns="http://www.w3.org/2000/svg" width="80" height="80" viewBox="0 0 80 80">
    <g fill="none" fill-rule="evenodd" transform="translate(18 21)">
        <rect width="21" height="7" x="12" y="1" fill="#1DBDC0" fill-rule="nonzero" rx="3"/>
        <path fill="#434A54" d="M11.237 6.705h1.592l-.026-2.403v-.007a2.405 2.405 0 0 1 2.393-2.403h14.416a2.403 2.403 0 0 1 2.393 2.403l-.03 2.41h1.63v-2.41A4.008 4.008 0 0 0 29.611.286H15.23c-2.203.004-3.989 1.8-3.993 4.009v2.41zM10.441 25.345c0-.318-.358-.576-.798-.576a.919.919 0 0 0-.551.164c-.157.109-.25.255-.25.412v2.878h1.6v-2.878zM36 25.345c.004-.154-.078-.296-.23-.4a.913.913 0 0 0-.567-.176c-.44 0-.798.258-.798.576v2.878H36v-2.878z"/>
        <path stroke="#434A54" stroke-linecap="round" stroke-linejoin="round" stroke-width="1.5" d="M1.652 25.015V36.93c0 .505.358.917.798.917h39.943c.44 0 .798-.412.798-.917V25.015H1.652z"/>
        <path stroke="#434A54" stroke-linecap="round" stroke-linejoin="round" stroke-width="1.5" d="M44.788 24.215V8.175a.8.8 0 0 0-.798-.801H.855a.801.801 0 0 0-.801.8v16.04c0 .442.358.802.801.802h6.39v-.801a2.42 2.42 0 0 1 2.393-2.41c1.327 0 2.4 1.081 2.4 2.41v.8h20.769v-.8c0-1.329 1.07-2.41 2.397-2.41a2.414 2.414 0 0 1 2.393 2.41v.8h6.393a.8.8 0 0 0 .798-.8z"/>
    </g>
</svg>
